<svg width="139" height="118" viewBox="0 0 139 118" fill="none" xmlns="http://www.w3.org/2000/svg">
<path d="M0 117.734V104.652H1.63519V117.734H0Z" fill="#1FBBEA"/>
<path d="M6.86698 108.532V117.734H4.90558V104.652H6.44668L13.5562 114.086V104.67H15.5343V117.734H13.9075L6.86698 108.532Z" fill="#1FBBEA"/>
<path d="M17.9872 117.734V104.652H26.9807V106.475H20.1179V110.381H25.8665V112.096H20.1179V117.734H17.9872Z" fill="#1FBBEA"/>
<path d="M28.6159 117.734V104.652H30.2511V117.734H28.6159Z" fill="#1FBBEA"/>
<path d="M34.8143 108.532V117.734H32.7039V104.652H34.3639L42.0218 114.086V104.67H44.1503V117.734H42.3979L34.8143 108.532Z" fill="#1FBBEA"/>
<path d="M47.4207 117.734V104.652H49.0558V117.734H47.4207Z" fill="#1FBBEA"/>
<path d="M62.1374 106.475H57.8569V117.734H55.8065V106.475H51.5086V104.652H62.1287L62.1374 106.475Z" fill="#1FBBEA"/>
<path d="M71.9486 115.909V117.734H63.7726V104.652H71.7961V106.475H65.6541V110.198H70.9737V111.911H65.6541V115.909H71.9486Z" fill="#1FBBEA"/>
<path d="M82.5667 104.652H84.2646L89.1181 117.734H87.0827L85.7823 114.176H81.0241L79.7424 117.734H77.6718L82.5667 104.652ZM85.391 112.648L83.4156 107.028L81.3719 112.648H85.391Z" fill="#1FBBEA"/>
<path d="M89.9357 117.734V104.652H92.1638V115.909H99.7469V117.734H89.9357Z" fill="#1FBBEA"/>
<path d="M111.191 114.371C111.2 114.863 111.085 115.35 110.857 115.79C110.642 116.202 110.336 116.565 109.963 116.852C109.567 117.15 109.118 117.374 108.638 117.513C108.114 117.666 107.568 117.74 107.02 117.734H100.564V104.653H107.535C107.979 104.647 108.417 104.749 108.811 104.948C109.183 105.138 109.513 105.398 109.781 105.713C110.051 106.03 110.26 106.392 110.399 106.781C110.547 107.169 110.624 107.578 110.627 107.991C110.629 108.623 110.455 109.244 110.122 109.787C109.793 110.341 109.289 110.777 108.684 111.032C109.418 111.228 110.064 111.653 110.522 112.242C110.982 112.861 111.217 113.609 111.191 114.371ZM102.697 106.438V110.298H106.62C106.873 110.3 107.123 110.25 107.355 110.151C107.574 110.053 107.773 109.919 107.944 109.754C108.118 109.583 108.255 109.379 108.345 109.155C108.442 108.907 108.49 108.644 108.486 108.379C108.505 107.874 108.329 107.379 107.992 106.993C107.838 106.817 107.645 106.678 107.427 106.584C107.21 106.49 106.974 106.445 106.736 106.451L102.697 106.438ZM109 113.979C109.001 113.715 108.953 113.453 108.859 113.205C108.77 112.97 108.641 112.752 108.477 112.559C108.317 112.375 108.119 112.225 107.896 112.119C107.666 112.008 107.412 111.951 107.155 111.953H102.697V115.955H107.02C107.289 115.957 107.555 115.904 107.801 115.799C108.278 115.594 108.653 115.217 108.848 114.748C108.95 114.505 109.002 114.245 109 113.983V113.979Z" fill="#1FBBEA"/>
<path d="M117.727 115.884C118.332 115.906 118.932 115.767 119.463 115.482C119.915 115.224 120.298 114.863 120.579 114.43C120.868 113.976 121.071 113.474 121.177 112.948C121.295 112.386 121.354 111.813 121.353 111.239V104.652H123.457V111.239C123.463 112.087 123.356 112.932 123.14 113.753C122.947 114.501 122.604 115.203 122.132 115.821C121.66 116.421 121.048 116.901 120.347 117.22C119.522 117.58 118.625 117.755 117.723 117.731C116.799 117.759 115.882 117.574 115.045 117.191C114.346 116.857 113.741 116.361 113.28 115.746C112.822 115.123 112.493 114.419 112.31 113.672C112.109 112.876 112.009 112.059 112.011 111.239V104.652H114.102V111.239C114.1 111.819 114.16 112.398 114.28 112.966C114.386 113.491 114.588 113.994 114.878 114.448C115.156 114.88 115.54 115.238 115.994 115.491C116.526 115.769 117.124 115.905 117.727 115.884Z" fill="#1FBBEA"/>
<path d="M136.926 117.734V108.311L133.032 115.442H131.887L127.976 108.311V117.734H125.91V104.652H128.115L132.452 112.648L136.787 104.652H138.992V117.734H136.926Z" fill="#1FBBEA"/>
<path d="M96.7312 0C86.7614 0.000670812 77.1135 3.5509 69.4958 10.022C61.8774 3.55058 52.2287 0.000348264 42.2582 0C18.9567 0 0 19.075 0 42.5172C0 65.9594 18.9567 85.0301 42.2582 85.0301C52.2277 85.0371 61.8756 81.4807 69.4808 74.9952C77.1005 81.4745 86.7546 85.0296 96.7312 85.0301C120.033 85.0301 138.992 65.9551 138.992 42.5107C138.992 19.0664 120.033 0 96.7312 0ZM1.60523 42.5172C1.60523 19.9687 19.8385 1.62368 42.2497 1.62368C51.752 1.62395 60.9534 4.97685 68.2523 11.0987C66.9176 12.3261 65.6616 13.6373 64.4917 15.0244C58.21 9.87224 50.3541 7.05805 42.2497 7.05677C22.82 7.05677 7.01379 22.9598 7.01379 42.5086C7.01379 62.0574 22.82 77.9626 42.2497 77.9626C48.5452 77.9671 54.7268 76.2737 60.151 73.0587C65.5752 69.8436 70.0438 65.2245 73.0915 59.6822C74.2771 57.5201 74.8972 55.0904 74.8936 52.6211V42.5172C74.8981 37.5011 76.6088 32.6377 79.7414 28.7355C82.8739 24.8333 87.2396 22.1274 92.1126 21.0676C96.9856 20.0079 102.072 20.6582 106.527 22.9105C110.982 25.1627 114.536 28.8812 116.599 33.4476C118.662 38.0141 119.11 43.1535 117.867 48.0112C116.624 52.869 113.767 57.1526 109.769 60.1497C105.771 63.1468 100.874 64.677 95.8925 64.4858C90.9106 64.2945 86.1438 62.3935 82.3847 59.0986L81.4858 58.3083C82.7751 55.0728 83.6616 51.6891 84.1248 48.2346C85.5288 51.3628 88.0335 53.8578 91.1566 55.239C94.2796 56.6203 97.8002 56.7901 101.04 55.7158C104.28 54.6415 107.011 52.3991 108.706 49.4204C110.401 46.4416 110.941 42.9372 110.221 39.5821C109.502 36.2269 107.574 33.2582 104.809 31.2477C102.044 29.2372 98.6371 28.327 95.245 28.6925C91.853 29.058 88.7152 30.6733 86.4361 33.2273C84.1569 35.7813 82.8976 39.0934 82.9005 42.5258C82.9005 65.0765 64.6694 83.4194 42.2561 83.4194C19.8428 83.4194 1.60523 65.0679 1.60523 42.5172ZM57.6813 26.2546L56.9129 25.5784C53.6818 22.7471 49.7092 20.9111 45.4693 20.2896C41.2294 19.668 36.9013 20.2871 33.0016 22.073C29.1018 23.8589 25.7953 26.7361 23.4765 30.3612C21.1578 33.9864 19.9248 38.2063 19.9248 42.5172C19.9248 46.8282 21.1578 51.048 23.4765 54.6732C25.7953 58.2983 29.1018 61.1755 33.0016 62.9614C36.9013 64.7473 41.2294 65.3664 45.4693 64.7449C49.7092 64.1233 53.6818 62.2873 56.9129 59.456C57.1077 59.2859 57.2982 59.1115 57.4844 58.9349C58.908 57.5772 60.0403 55.9405 60.8114 54.1258C61.5826 52.3111 61.9763 50.3567 61.9683 48.3831V42.5172C61.968 37.9245 62.8671 33.3768 64.6141 29.1338C66.3611 24.8908 68.9219 21.0357 72.1501 17.7887C75.3784 14.5417 79.2108 11.9664 83.4285 10.21C87.6462 8.45352 92.1665 7.55036 96.7312 7.55206C115.895 7.55206 131.485 23.2376 131.485 42.5172C131.485 61.7968 115.898 77.4931 96.7312 77.4931C88.7357 77.4936 80.985 74.7173 74.7887 69.6331C76.0648 68.0867 77.2299 66.451 78.2753 64.7384C83.4499 69.0963 89.983 71.4845 96.7312 71.4851C112.602 71.4851 125.514 58.4935 125.514 42.5258C125.514 26.5582 112.602 13.5601 96.7312 13.5601C89.0988 13.5613 81.7794 16.6126 76.3829 22.043C70.9864 27.4734 67.9548 34.8381 67.9548 42.5172V50.7907C67.9689 53.6445 67.1104 56.4337 65.4955 58.7799C62.8917 62.5529 59.4181 65.6352 55.3721 67.7631C51.3261 69.8909 46.8279 71.001 42.2625 70.9984C26.6597 70.9984 13.9655 58.2286 13.9655 42.528C13.9655 26.8274 26.6468 14.0468 42.2582 14.0468C48.9145 14.0473 55.3571 16.4113 60.4508 20.7224C59.3995 22.4969 58.4775 24.3458 57.692 26.2546H57.6813ZM60.697 20.3003C55.5237 15.9452 48.9929 13.5592 42.2475 13.5601C26.3771 13.5601 13.4668 26.5496 13.4668 42.5172C13.4668 58.4849 26.3771 71.4765 42.2475 71.4765C46.8911 71.4779 51.4661 70.3481 55.5813 68.1835C59.6965 66.019 63.2296 62.8842 65.8787 59.0469C67.5518 56.6236 68.444 53.7413 68.4342 50.7907V42.5172C68.4342 34.9664 71.4155 27.7248 76.7222 22.3856C82.0289 17.0463 89.2263 14.0468 96.7312 14.0468C112.336 14.0468 125.028 26.8187 125.028 42.5172C125.029 47.9388 123.492 53.2481 120.596 57.8203C117.7 62.3926 113.567 66.0376 108.682 68.3267C103.797 70.6157 98.3644 71.4535 93.0225 70.7416C87.6805 70.0296 82.6518 67.7974 78.5279 64.3077C79.584 62.5357 80.5097 60.6881 81.2974 58.7799L82.0679 59.456C85.9131 62.8257 90.7888 64.7694 95.8843 64.964C100.98 65.1586 105.988 63.5924 110.076 60.5258C114.164 57.4591 117.085 53.0769 118.354 48.1079C119.623 43.1389 119.163 37.8826 117.051 33.213C114.939 28.5435 111.302 24.7422 106.744 22.4412C102.186 20.1403 96.9833 19.4784 91.9999 20.5656C87.0166 21.6529 82.5533 24.4237 79.3524 28.4174C76.1515 32.411 74.4058 37.3868 74.4056 42.5172V52.6211C74.4087 55.0082 73.8092 57.3571 72.6634 59.4474C69.6606 64.9146 65.2563 69.4722 59.909 72.6459C54.5616 75.8196 48.4666 77.4934 42.2582 77.4931C23.0961 77.4931 7.50606 61.8076 7.50606 42.5258C7.50606 23.2441 23.0961 7.56067 42.2582 7.56067C50.2466 7.55761 57.9918 10.326 64.1878 15.3991C62.9134 16.9476 61.7504 18.5854 60.7077 20.3003H60.697ZM84.5186 42.5172C84.5186 40.0865 85.235 37.7103 86.5773 35.6893C87.9196 33.6682 89.8274 32.093 92.0594 31.1629C94.2915 30.2328 96.7476 29.9895 99.1171 30.4639C101.487 30.9383 103.663 32.109 105.371 33.8279C107.079 35.5469 108.243 37.7369 108.714 40.121C109.185 42.505 108.942 44.9761 108.018 47.2217C107.093 49.4673 105.527 51.3865 103.518 52.7367C101.509 54.0868 99.1471 54.8072 96.7312 54.8068C93.4932 54.8022 90.3892 53.5059 88.0998 51.2021C85.8104 48.8983 84.5226 45.775 84.5186 42.5172ZM96.7312 83.4107C87.2221 83.4104 78.0146 80.0526 70.7136 73.9227C72.0485 72.6949 73.3039 71.3822 74.472 69.9928C80.7562 75.1537 88.6193 77.9721 96.7312 77.9712C116.163 77.9712 131.969 62.0681 131.969 42.5172C131.969 22.9663 116.163 7.07615 96.7312 7.07615C87.3877 7.07558 78.4266 10.809 71.8188 17.4553C65.211 24.1016 61.4976 33.1165 61.4953 42.5172V48.3767C61.5038 50.2846 61.124 52.1741 60.3794 53.9288C59.6347 55.6835 58.541 57.2662 57.1655 58.5796C56.9814 58.7519 56.7952 58.922 56.6047 59.0878C53.4445 61.8543 49.56 63.6476 45.4147 64.2538C41.2693 64.8599 37.0381 64.2534 33.226 62.5065C29.4139 60.7596 26.1817 57.9461 23.9152 54.4018C21.6487 50.8574 20.4436 46.7318 20.4436 42.5172C20.4436 38.3026 21.6487 34.177 23.9152 30.6327C26.1817 27.0883 29.4139 24.2748 33.226 22.5279C37.0381 20.781 41.2693 20.1745 45.4147 20.7807C49.56 21.3868 53.4445 23.1802 56.6047 25.9466L57.4972 26.7305C56.2122 29.9637 55.3259 33.3432 54.8582 36.7934C53.451 33.6673 50.9441 31.1755 47.8202 29.7977C44.6963 28.4198 41.1763 28.2533 37.9377 29.3302C34.6991 30.4072 31.971 32.6514 30.2784 35.6308C28.5859 38.6103 28.0487 42.1144 28.7701 45.4685C29.4916 48.8227 31.4207 51.7897 34.1862 53.7985C36.9516 55.8073 40.3579 56.7159 43.7492 56.3492C47.1406 55.9826 50.2773 54.3667 52.5554 51.8126C54.8336 49.2585 56.0922 45.9468 56.0889 42.5151C56.0883 37.1449 57.1392 31.8272 59.1814 26.8656C61.2237 21.9041 64.2173 17.3959 67.9914 13.5985C71.7654 9.80106 76.246 6.78885 81.1772 4.73383C86.1084 2.67881 91.3937 1.62125 96.7312 1.62153C119.144 1.62153 137.378 19.9666 137.378 42.5151C137.378 65.0636 119.144 83.4107 96.7312 83.4107ZM54.4708 42.5172C54.4708 44.9479 53.7544 47.3239 52.4123 49.3449C51.0701 51.366 49.1624 52.9412 46.9305 53.8713C44.6985 54.8015 42.2425 55.0449 39.8731 54.5707C37.5037 54.0965 35.3272 52.926 33.619 51.2073C31.9107 49.4885 30.7474 47.2987 30.2761 44.9148C29.8047 42.5308 30.0466 40.0598 30.9711 37.8142C31.8956 35.5686 33.4612 33.6492 35.4699 32.2988C37.4786 30.9484 39.8402 30.2276 42.2561 30.2276C45.4946 30.231 48.5995 31.5269 50.8894 33.8309C53.1794 36.1349 54.4674 39.2589 54.4708 42.5172Z" fill="url(#paint0_linear)"/>
<defs>
<linearGradient id="paint0_linear" x1="41.5605" y1="-6.16094" x2="97.9425" y2="90.8992" gradientUnits="userSpaceOnUse">
<stop stop-color="#09528B"/>
<stop offset="0.08" stop-color="#0B5B92"/>
<stop offset="0.21" stop-color="#1172A3"/>
<stop offset="0.37" stop-color="#1A98C0"/>
<stop offset="0.53" stop-color="#25C4E2"/>
<stop offset="1" stop-color="#09528B"/>
</linearGradient>
</defs>
</svg>
