<svg width="160" height="38" viewBox="0 0 160 38" fill="none" xmlns="http://www.w3.org/2000/svg">
<path d="M74 18.4615V3H75.9327V18.4615H74Z" fill="#1FBBEA"/>
<path d="M82.1163 7.58486V18.4615H79.7981V3H81.6196L90.0226 14.1499V3.02082H92.3606V18.4615H90.4378L82.1163 7.58486Z" fill="#1FBBEA"/>
<path d="M95.2598 18.4615V3H105.89V5.15451H97.7781V9.77061H104.573V11.7976H97.7781V18.4615H95.2598Z" fill="#1FBBEA"/>
<path d="M107.822 18.4615V3H109.755V18.4615H107.822Z" fill="#1FBBEA"/>
<path d="M115.148 7.58486V18.4615H112.654V3H114.616L123.667 14.1499V3.02082H126.183V18.4615H124.112L115.148 7.58486Z" fill="#1FBBEA"/>
<path d="M130.048 18.4615V3H131.981V18.4615H130.048Z" fill="#1FBBEA"/>
<path d="M147.442 5.15451H142.383V18.4615H139.959V5.15451H134.88V3H147.432L147.442 5.15451Z" fill="#1FBBEA"/>
<path d="M159.038 16.3044V18.4615H149.375V3H158.858V5.15451H151.599V9.55463H157.886V11.579H151.599V16.3044H159.038Z" fill="#1FBBEA"/>
<path d="M79.7855 19H81.7923L87.5288 34.4615H85.1231L83.5862 30.2566H77.9622L76.4473 34.4615H74L79.7855 19ZM83.1237 28.4507L80.7889 21.8076L78.3734 28.4507H83.1237Z" fill="#1FBBEA"/>
<path d="M88.4954 34.4615V19H91.1288V32.3044H100.092V34.4615H88.4954Z" fill="#1FBBEA"/>
<path d="M113.618 30.4864C113.629 31.0683 113.493 31.6439 113.223 32.1638C112.968 32.6514 112.608 33.0797 112.166 33.4192C111.698 33.7709 111.168 34.0359 110.6 34.2006C109.98 34.3813 109.336 34.4691 108.688 34.461H101.058V19.0002H109.296C109.821 18.9939 110.339 19.1138 110.805 19.3492C111.245 19.5743 111.634 19.8814 111.951 20.253C112.27 20.6286 112.518 21.0564 112.682 21.5163C112.857 21.9742 112.948 22.4581 112.951 22.9462C112.954 23.693 112.747 24.4265 112.354 25.0689C111.965 25.7232 111.369 26.2391 110.654 26.5405C111.522 26.7719 112.286 27.2746 112.827 27.9704C113.37 28.7017 113.648 29.5863 113.618 30.4864ZM103.578 21.1099V25.6732H108.215C108.514 25.6756 108.81 25.6161 109.084 25.4987C109.342 25.3833 109.578 25.2246 109.78 25.0298C109.986 24.8274 110.147 24.5863 110.253 24.3214C110.369 24.0288 110.425 23.7177 110.42 23.4046C110.443 22.8072 110.235 22.2231 109.837 21.7663C109.654 21.5589 109.426 21.3937 109.169 21.2828C108.912 21.1719 108.633 21.1182 108.352 21.1256L103.578 21.1099ZM111.028 30.0228C111.029 29.7109 110.972 29.4014 110.861 29.1086C110.756 28.8313 110.604 28.5732 110.409 28.3455C110.221 28.1275 109.987 27.9501 109.724 27.8246C109.451 27.6937 109.151 27.6268 108.847 27.6292H103.578V32.3591H108.688C109.006 32.3613 109.32 32.2982 109.611 32.1742C110.174 31.9318 110.618 31.4861 110.848 30.9318C110.969 30.6451 111.03 30.3379 111.028 30.028V30.0228Z" fill="#1FBBEA"/>
<path d="M121.343 32.275C122.058 32.3013 122.767 32.137 123.395 31.7996C123.929 31.4944 124.381 31.0683 124.713 30.5569C125.056 30.0198 125.295 29.4262 125.42 28.8051C125.56 28.1405 125.63 27.4634 125.628 26.7847V19H128.115V26.7847C128.122 27.7868 127.996 28.7855 127.741 29.7559C127.512 30.6398 127.107 31.4706 126.549 32.2001C125.991 32.9092 125.268 33.4764 124.439 33.8537C123.464 34.2795 122.405 34.486 121.338 34.4583C120.246 34.4914 119.162 34.2728 118.173 33.8201C117.347 33.4247 116.631 32.8386 116.087 32.1123C115.546 31.3758 115.156 30.543 114.94 29.6603C114.703 28.7195 114.584 27.7538 114.587 26.7847V19H117.058V26.7847C117.056 27.4704 117.127 28.1544 117.269 28.8258C117.394 29.4469 117.633 30.0405 117.975 30.5775C118.305 31.0885 118.758 31.5119 119.294 31.81C119.923 32.1394 120.63 32.2999 121.343 32.275Z" fill="#1FBBEA"/>
<path d="M144.034 34.4615V23.3247L139.432 31.7528H138.079L133.456 23.3247V34.4615H131.014V19H133.62L138.746 28.4507L143.87 19H146.476V34.4615H144.034Z" fill="#1FBBEA"/>
<path d="M43.3987 0C38.9258 0.000299786 34.5972 1.5869 31.1795 4.47885C27.7615 1.58676 23.4326 0.00015564 18.9593 0C8.50498 0 0 8.52464 0 19.001C0 29.4773 8.50498 38 18.9593 38C23.4321 38.0031 27.7607 36.4138 31.1728 33.5154C34.5914 36.411 38.9227 37.9998 43.3987 38C53.853 38 62.359 29.4754 62.359 18.9981C62.359 8.52079 53.853 0 43.3987 0ZM0.720191 19.001C0.720191 8.92402 8.90061 0.725624 18.9554 0.725624C23.2187 0.725744 27.3469 2.22415 30.6216 4.96004C30.0228 5.50853 29.4593 6.09451 28.9344 6.71443C26.1161 4.41191 22.5915 3.15425 18.9554 3.15367C10.2382 3.15367 3.14676 10.2608 3.14676 18.9971C3.14676 27.7335 10.2382 34.8415 18.9554 34.8415C21.7799 34.8435 24.5533 34.0868 26.9869 32.65C29.4205 31.2132 31.4254 29.1489 32.7927 26.672C33.3246 25.7058 33.6029 24.6199 33.6012 23.5164V19.001C33.6032 16.7593 34.3708 14.5858 35.7762 12.8419C37.1816 11.098 39.1403 9.88872 41.3266 9.41514C43.5129 8.94155 45.795 9.23217 47.7937 10.2387C49.7923 11.2452 51.3869 12.907 52.3125 14.9478C53.2381 16.9885 53.4388 19.2853 52.8814 21.4562C52.3239 23.6272 51.0418 25.5415 49.2482 26.8809C47.4546 28.2203 45.2576 28.9042 43.0225 28.8187C40.7873 28.7333 38.6487 27.8837 36.9621 26.4112L36.5588 26.058C37.1373 24.612 37.535 23.0999 37.7428 21.556C38.3727 22.9541 39.4965 24.0691 40.8977 24.6863C42.2988 25.3036 43.8783 25.3795 45.332 24.8994C46.7857 24.4193 48.0107 23.4172 48.7712 22.086C49.5317 20.7548 49.7738 19.1887 49.451 17.6892C49.1282 16.1898 48.2632 14.8631 47.0227 13.9646C45.7822 13.0661 44.2538 12.6594 42.732 12.8227C41.2101 12.986 39.8023 13.7079 38.7798 14.8493C37.7573 15.9907 37.1922 17.4709 37.1936 19.0048C37.1936 29.0827 29.0141 37.2801 18.9583 37.2801C8.90252 37.2801 0.720191 29.0789 0.720191 19.001ZM25.8789 11.7332L25.5341 11.431C24.0845 10.1657 22.3022 9.34519 20.4 9.06741C18.4977 8.78963 16.5559 9.06631 14.8062 9.86443C13.0566 10.6625 11.5731 11.9484 10.5328 13.5685C9.49249 15.1885 8.93932 17.0744 8.93932 19.001C8.93932 20.9275 9.49249 22.8134 10.5328 24.4335C11.5731 26.0535 13.0566 27.3394 14.8062 28.1375C16.5559 28.9356 18.4977 29.2123 20.4 28.9345C22.3022 28.6567 24.0845 27.8362 25.5341 26.5709C25.6215 26.4949 25.707 26.417 25.7905 26.338C26.4292 25.7313 26.9372 24.9998 27.2832 24.1888C27.6292 23.3778 27.8058 22.5044 27.8023 21.6224V19.001C27.8021 16.9485 28.2055 14.9161 28.9893 13.0199C29.7731 11.1237 30.922 9.40086 32.3704 7.94977C33.8187 6.49868 35.5382 5.34778 37.4304 4.56283C39.3227 3.77788 41.3508 3.37426 43.3987 3.37502C51.9969 3.37502 58.9914 10.3849 58.9914 19.001C58.9914 27.617 51.9978 34.6317 43.3987 34.6317C39.8115 34.6319 36.3342 33.3912 33.5542 31.1191C34.1267 30.428 34.6494 29.697 35.1185 28.9316C37.4401 30.8792 40.3711 31.9465 43.3987 31.9467C50.519 31.9467 56.3122 26.1408 56.3122 19.0048C56.3122 11.8689 50.519 6.06002 43.3987 6.06002C39.9744 6.06053 36.6906 7.42417 34.2694 9.85101C31.8483 12.2779 30.4881 15.5691 30.4881 19.001V22.6984C30.4945 23.9737 30.1093 25.2202 29.3848 26.2688C28.2165 27.9549 26.6581 29.3324 24.8429 30.2833C23.0276 31.2343 21.0095 31.7304 18.9612 31.7292C11.9609 31.7292 6.26567 26.0224 6.26567 19.0058C6.26567 11.9892 11.9552 6.27751 18.9593 6.27751C21.9456 6.27774 24.8361 7.33423 27.1214 9.26085C26.6498 10.0539 26.2361 10.8802 25.8837 11.7332H25.8789ZM27.2319 9.07223C24.9109 7.12591 21.9808 6.05963 18.9545 6.06002C11.8342 6.06002 6.04193 11.865 6.04193 19.001C6.04193 26.1369 11.8342 31.9429 18.9545 31.9429C21.0379 31.9435 23.0904 31.4386 24.9367 30.4713C26.783 29.5039 28.3681 28.103 29.5567 26.3881C30.3073 25.3051 30.7076 24.017 30.7032 22.6984V19.001C30.7032 15.6265 32.0408 12.3902 34.4216 10.0041C36.8025 7.61802 40.0317 6.27751 43.3987 6.27751C50.4 6.27751 56.0943 11.9853 56.0943 19.001C56.0948 21.4239 55.405 23.7966 54.1058 25.8399C52.8066 27.8833 50.9521 29.5122 48.7605 30.5352C46.569 31.5582 44.1315 31.9326 41.7348 31.6144C39.3381 31.2963 37.082 30.2987 35.2318 28.7391C35.7056 27.9472 36.1209 27.1215 36.4743 26.2688L36.82 26.5709C38.5452 28.0768 40.7327 28.9455 43.0188 29.0324C45.3049 29.1194 47.5518 28.4195 49.3859 27.049C51.22 25.6785 52.5307 23.7201 53.1 21.4994C53.6694 19.2788 53.463 16.9297 52.5154 14.8429C51.5677 12.7561 49.9358 11.0573 47.891 10.029C45.8462 9.0007 43.5118 8.7049 41.276 9.19079C39.0403 9.67668 37.0378 10.915 35.6017 12.6997C34.1656 14.4845 33.3824 16.7082 33.3823 19.001V23.5164C33.3837 24.5832 33.1147 25.6329 32.6007 26.5671C31.2534 29.0104 29.2775 31.0472 26.8783 32.4655C24.4792 33.8838 21.7447 34.6318 18.9593 34.6317C10.3621 34.6317 3.36762 27.6218 3.36762 19.0048C3.36762 10.3878 10.3621 3.37887 18.9593 3.37887C22.5433 3.3775 26.0182 4.6147 28.7981 6.88188C28.2263 7.57387 27.7045 8.30584 27.2367 9.07223H27.2319ZM37.9195 19.001C37.9195 17.9147 38.2409 16.8528 38.8432 15.9495C39.4454 15.0463 40.3013 14.3424 41.3027 13.9267C42.3042 13.511 43.4061 13.4023 44.4692 13.6143C45.5323 13.8263 46.5087 14.3495 47.2751 15.1177C48.0415 15.8859 48.5633 16.8646 48.7747 17.9301C48.986 18.9955 48.8774 20.0999 48.4624 21.1034C48.0475 22.107 47.345 22.9647 46.4436 23.568C45.5423 24.1714 44.4827 24.4934 43.3987 24.4932C41.946 24.4911 40.5534 23.9118 39.5262 22.8822C38.4991 21.8527 37.9213 20.4569 37.9195 19.001ZM43.3987 37.2763C39.1324 37.2761 35.0015 35.7756 31.7259 33.0361C32.3248 32.4874 32.888 31.9007 33.4121 31.2798C36.2315 33.5862 39.7593 34.8457 43.3987 34.8454C52.1169 34.8454 59.2084 27.7383 59.2084 19.001C59.2084 10.2636 52.1169 3.16234 43.3987 3.16234C39.2068 3.16208 35.1863 4.83055 32.2217 7.80079C29.2571 10.771 27.5911 14.7998 27.5901 19.001V21.6196C27.5939 22.4722 27.4235 23.3166 27.0894 24.1008C26.7553 24.885 26.2646 25.5923 25.6475 26.1793C25.5649 26.2562 25.4813 26.3323 25.3959 26.4064C23.9781 27.6427 22.2353 28.4441 20.3754 28.715C18.5156 28.9859 16.6173 28.7149 14.9069 27.9342C13.1966 27.1535 11.7465 25.8962 10.7296 24.3122C9.71277 22.7282 9.17208 20.8845 9.17208 19.001C9.17208 17.1175 9.71277 15.2737 10.7296 13.6897C11.7465 12.1058 13.1966 10.8484 14.9069 10.0677C16.6173 9.28705 18.5156 9.01598 20.3754 9.28689C22.2353 9.55779 23.9781 10.3592 25.3959 11.5956L25.7963 11.9459C25.2198 13.3908 24.8221 14.9011 24.6123 16.443C23.9809 15.0459 22.8562 13.9323 21.4547 13.3166C20.0531 12.7008 18.4739 12.6264 17.0209 13.1077C15.5679 13.589 14.3439 14.5919 13.5845 15.9234C12.8252 17.255 12.5841 18.8209 12.9078 20.3199C13.2315 21.8189 14.097 23.1449 15.3377 24.0426C16.5785 24.9403 18.1067 25.3463 19.6282 25.1825C21.1498 25.0186 22.557 24.2965 23.5791 23.1551C24.6013 22.0137 25.1659 20.5337 25.1644 19C25.1642 16.6001 25.6357 14.2236 26.5519 12.0063C27.4682 9.78893 28.8113 7.77422 30.5045 6.07716C32.1978 4.3801 34.208 3.03394 36.4204 2.11555C38.6328 1.19716 41.0041 0.724535 43.3987 0.724662C53.4545 0.724662 61.6349 8.92306 61.6349 19C61.6349 29.0769 53.4545 37.2763 43.3987 37.2763ZM24.4385 19.001C24.4385 20.0872 24.1171 21.1491 23.5149 22.0523C22.9127 22.9555 22.0569 23.6594 21.0555 24.0751C20.0541 24.4908 18.9522 24.5996 17.8892 24.3877C16.8261 24.1757 15.8497 23.6526 15.0832 22.8845C14.3168 22.1164 13.7949 21.1378 13.5834 20.0724C13.372 19.0071 13.4805 17.9028 13.8953 16.8992C14.3101 15.8956 15.0125 15.0378 15.9137 14.4343C16.8149 13.8308 17.8744 13.5087 18.9583 13.5087C20.4113 13.5103 21.8043 14.0894 22.8317 15.1191C23.8591 16.1487 24.437 17.5448 24.4385 19.001Z" fill="url(#paint0_linear)"/>
<defs>
<linearGradient id="paint0_linear" x1="18.6462" y1="-2.75333" x2="43.7944" y2="40.7084" gradientUnits="userSpaceOnUse">
<stop stop-color="#09528B"/>
<stop offset="0.08" stop-color="#0B5B92"/>
<stop offset="0.21" stop-color="#1172A3"/>
<stop offset="0.37" stop-color="#1A98C0"/>
<stop offset="0.53" stop-color="#25C4E2"/>
<stop offset="1" stop-color="#09528B"/>
</linearGradient>
</defs>
</svg>
