<svg width="139" height="118" fill="none" xmlns="http://www.w3.org/2000/svg"><path d="M0 117.734v-13.082h1.635v13.082H0zm6.867-9.202v9.202H4.906v-13.082h1.54l7.11 9.434v-9.416h1.978v13.064h-1.627l-7.04-9.202zm11.12 9.202v-13.082h8.994v1.823h-6.863v3.906h5.748v1.715h-5.748v5.638h-2.13zm10.629 0v-13.082h1.635v13.082h-1.635zm6.198-9.202v9.202h-2.11v-13.082h1.66l7.658 9.434v-9.416h2.128v13.064h-1.752l-7.584-9.202zm12.606 9.202v-13.082h1.636v13.082H47.42zm14.717-11.259h-4.28v11.259h-2.05v-11.259h-4.298v-1.823h10.62l.008 1.823zm9.812 9.434v1.825h-8.176v-13.082h8.023v1.823h-6.142v3.723h5.32v1.713h-5.32v3.998h6.295zm10.618-11.257h1.698l4.853 13.082h-2.035l-1.3-3.558h-4.759l-1.282 3.558h-2.07l4.895-13.082zm2.824 7.996l-1.975-5.62-2.044 5.62h4.019zm4.545 5.086v-13.082h2.228v11.257h7.583v1.825h-9.811zm21.255-3.363c.009.492-.106.979-.334 1.419a3.228 3.228 0 01-.894 1.062 4.099 4.099 0 01-1.325.661 5.559 5.559 0 01-1.618.221h-6.456v-13.081h6.971a2.75 2.75 0 011.276.295c.372.19.702.45.97.765.27.317.479.679.618 1.068.148.388.225.797.228 1.21a3.413 3.413 0 01-.505 1.796c-.329.554-.833.99-1.438 1.245.734.196 1.38.621 1.838 1.21.46.619.695 1.367.669 2.129zm-8.494-7.933v3.86h3.923c.253.002.503-.048.735-.147.219-.098.418-.232.589-.397.174-.171.311-.375.401-.599.097-.248.145-.511.141-.776.019-.505-.157-1-.494-1.386a1.58 1.58 0 00-.565-.409 1.635 1.635 0 00-.691-.133l-4.039-.013zm6.303 7.541a2.2 2.2 0 00-.523-1.42 1.785 1.785 0 00-.581-.44 1.676 1.676 0 00-.741-.166h-4.458v4.002h4.323a1.972 1.972 0 001.98-1.972v-.004zm8.727 1.905a3.411 3.411 0 001.736-.402 3.25 3.25 0 001.116-1.052c.289-.454.492-.956.598-1.482a8.249 8.249 0 00.176-1.709v-6.587h2.104v6.587a9.612 9.612 0 01-.317 2.514 5.79 5.79 0 01-1.008 2.068 4.798 4.798 0 01-1.785 1.399 6.156 6.156 0 01-2.624.511 6 6 0 01-2.678-.54 4.78 4.78 0 01-1.765-1.445 5.85 5.85 0 01-.97-2.074 9.837 9.837 0 01-.299-2.433v-6.587h2.091v6.587a8.22 8.22 0 00.178 1.727c.106.525.308 1.028.598 1.482.278.432.662.79 1.116 1.043.532.278 1.13.414 1.733.393zm19.199 1.85v-9.423l-3.894 7.131h-1.145l-3.911-7.131v9.423h-2.066v-13.082h2.205l4.337 7.996 4.335-7.996h2.205v13.082h-2.066z" fill="#1FBBEA"/><path d="M96.731 0c-9.97 0-19.617 3.55-27.235 10.022A42.07 42.07 0 0042.258 0C18.957 0 0 19.075 0 42.517 0 65.96 18.957 85.03 42.258 85.03a41.905 41.905 0 0027.223-10.035A42.066 42.066 0 0096.73 85.03c23.302 0 42.261-19.075 42.261-42.52 0-23.444-18.959-42.51-42.26-42.51zM1.605 42.517c0-22.548 18.233-40.893 40.645-40.893a40.461 40.461 0 0126.002 9.475 42.97 42.97 0 00-3.76 3.925A35.078 35.078 0 0042.25 7.057c-19.43 0-35.236 15.903-35.236 35.452 0 19.548 15.806 35.454 35.236 35.454a35.056 35.056 0 0017.901-4.904 35.337 35.337 0 0012.94-13.377 14.643 14.643 0 001.803-7.06V42.516a22.049 22.049 0 014.847-13.782 21.812 21.812 0 0112.372-7.667 21.71 21.71 0 0114.414 1.842 21.904 21.904 0 0110.072 10.538 22.086 22.086 0 011.268 14.563 21.972 21.972 0 01-8.098 12.139 21.741 21.741 0 01-13.877 4.336 21.758 21.758 0 01-13.507-5.387l-.9-.79a42.457 42.457 0 002.64-10.074 13.857 13.857 0 007.032 7.004 13.737 13.737 0 009.883.477 13.835 13.835 0 007.666-6.296 13.972 13.972 0 001.515-9.838 13.904 13.904 0 00-5.412-8.334 13.754 13.754 0 00-18.373 1.98 13.949 13.949 0 00-3.536 9.298c0 22.55-18.23 40.893-40.644 40.893-22.413 0-40.65-18.351-40.65-40.902zm56.076-16.262l-.768-.677a22.264 22.264 0 00-11.444-5.288 22.202 22.202 0 00-12.467 1.783 22.366 22.366 0 00-9.526 8.288 22.563 22.563 0 00-3.551 12.156 22.56 22.56 0 003.552 12.156 22.366 22.366 0 009.525 8.288 22.203 22.203 0 0012.467 1.784 22.265 22.265 0 0012.015-5.81 14.459 14.459 0 003.327-4.81 14.534 14.534 0 001.157-5.742v-5.866c0-4.593.9-9.14 2.646-13.383a34.978 34.978 0 017.536-11.345 34.737 34.737 0 0111.278-7.579 34.565 34.565 0 0113.303-2.658c19.164 0 34.754 15.686 34.754 34.965 0 19.28-15.587 34.976-34.754 34.976a34.585 34.585 0 01-21.942-7.86 42.392 42.392 0 003.486-4.895 28.652 28.652 0 0018.456 6.747c15.871 0 28.783-12.992 28.783-28.96 0-15.967-12.912-28.965-28.783-28.965a28.692 28.692 0 00-20.348 8.483 29.047 29.047 0 00-8.428 20.474v8.274a13.97 13.97 0 01-2.46 7.989 28.32 28.32 0 01-10.123 8.983 28.128 28.128 0 01-13.11 3.235c-15.602 0-28.297-12.77-28.297-28.47s12.682-28.481 28.293-28.481a28.161 28.161 0 0118.193 6.675 42.832 42.832 0 00-2.759 5.533h-.01zm3.016-5.955a28.639 28.639 0 00-18.45-6.74c-15.87 0-28.78 12.99-28.78 28.957 0 15.968 12.91 28.96 28.78 28.96a28.62 28.62 0 0013.334-3.294 28.818 28.818 0 0010.298-9.136 14.449 14.449 0 002.555-8.256v-8.274a28.56 28.56 0 018.288-20.131 28.21 28.21 0 0120.01-8.34c15.604 0 28.296 12.773 28.296 28.471a28.592 28.592 0 01-4.432 15.303 28.345 28.345 0 01-11.914 10.507 28.138 28.138 0 01-15.66 2.415 28.208 28.208 0 01-14.494-6.434 42.393 42.393 0 002.77-5.528l.77.676a22.25 22.25 0 0013.816 5.508 22.232 22.232 0 0014.192-4.438 22.469 22.469 0 008.278-12.418 22.59 22.59 0 00-1.303-14.895 22.399 22.399 0 00-10.307-10.772A22.205 22.205 0 0092 20.566a22.306 22.306 0 00-12.648 7.851 22.549 22.549 0 00-4.946 14.1v10.104a14.165 14.165 0 01-1.743 6.826A34.853 34.853 0 0159.91 72.646a34.576 34.576 0 01-17.65 4.847c-19.163 0-34.753-15.685-34.753-34.967 0-19.282 15.59-34.965 34.752-34.965a34.592 34.592 0 0121.93 7.838 42.276 42.276 0 00-3.48 4.901h-.011zm23.822 22.217c0-2.43.716-4.807 2.058-6.828a12.231 12.231 0 015.482-4.526 12.146 12.146 0 017.058-.7 12.19 12.19 0 016.254 3.365 12.315 12.315 0 013.343 6.293 12.367 12.367 0 01-.696 7.1 12.276 12.276 0 01-4.5 5.516 12.163 12.163 0 01-6.787 2.07 12.192 12.192 0 01-8.631-3.605 12.343 12.343 0 01-3.581-8.685zM96.73 83.411a40.46 40.46 0 01-26.017-9.488 42.485 42.485 0 003.758-3.93 35.063 35.063 0 0022.26 7.978c19.431 0 35.237-15.903 35.237-35.454 0-19.55-15.806-35.44-35.238-35.44a35.125 35.125 0 00-24.91 10.377 35.56 35.56 0 00-10.324 25.062v5.86a14.054 14.054 0 01-1.116 5.552 13.983 13.983 0 01-3.774 5.159 21.771 21.771 0 01-11.19 5.166c-4.146.606-8.377 0-12.189-1.748a21.871 21.871 0 01-9.31-8.104 22.063 22.063 0 01-3.472-11.885c0-4.214 1.205-8.34 3.471-11.884a21.87 21.87 0 019.311-8.105 21.711 21.711 0 0112.189-1.747c4.145.606 8.03 2.4 11.19 5.166l.892.784a42.82 42.82 0 00-2.639 10.062 13.856 13.856 0 00-7.038-6.995 13.738 13.738 0 00-9.882-.468 13.835 13.835 0 00-7.66 6.3 13.975 13.975 0 00-1.508 9.838 13.907 13.907 0 005.416 8.33 13.752 13.752 0 0018.37-1.985 13.949 13.949 0 003.533-9.298c0-5.37 1.05-10.688 3.092-15.65a40.908 40.908 0 018.81-13.266 40.623 40.623 0 0113.186-8.865 40.425 40.425 0 0115.554-3.112c22.413 0 40.647 18.345 40.647 40.893 0 22.549-18.234 40.896-40.647 40.896zM54.47 42.517c0 2.43-.717 4.807-2.059 6.828a12.23 12.23 0 01-5.481 4.526 12.146 12.146 0 01-7.058.7 12.192 12.192 0 01-6.254-3.364 12.313 12.313 0 01-3.343-6.292 12.359 12.359 0 01.695-7.1 12.274 12.274 0 014.499-5.516 12.162 12.162 0 016.786-2.071 12.19 12.19 0 018.633 3.603 12.34 12.34 0 013.582 8.686z" fill="url(#paint0_linear)"/><defs><linearGradient id="paint0_linear" x1="41.56" y1="-6.161" x2="97.942" y2="90.899" gradientUnits="userSpaceOnUse"><stop stop-color="#09528B"/><stop offset=".08" stop-color="#0B5B92"/><stop offset=".21" stop-color="#1172A3"/><stop offset=".37" stop-color="#1A98C0"/><stop offset=".53" stop-color="#25C4E2"/><stop offset="1" stop-color="#09528B"/></linearGradient></defs></svg>