<svg width="160" height="38" fill="none" xmlns="http://www.w3.org/2000/svg"><path d="M74 18.462V3h1.933v15.462H74zm8.116-10.877v10.877h-2.318V3h1.822l8.403 11.15V3.02h2.338v15.442h-1.923L82.116 7.585zM95.26 18.462V3h10.63v2.155h-8.112V9.77h6.795v2.027h-6.795v6.664H95.26zm12.562 0V3h1.933v15.462h-1.933zm7.326-10.877v10.877h-2.494V3h1.962l9.051 11.15V3.02h2.516v15.442h-2.071l-8.964-10.877zm14.9 10.877V3h1.933v15.462h-1.933zm17.394-13.307h-5.059V18.46h-2.424V5.156h-5.079V3h12.552l.01 2.155zm11.596 11.149v2.158h-9.663V3h9.483v2.155h-7.259v4.4h6.287v2.024h-6.287v4.725h7.439zM79.785 19h2.007l5.737 15.462h-2.406l-1.537-4.205h-5.624l-1.515 4.204H74L79.785 19zm3.339 9.45l-2.335-6.642-2.416 6.643h4.75zm5.371 6.012V19h2.634v13.304h8.963v2.157H88.495zm25.123-3.976a3.494 3.494 0 01-.395 1.678 3.81 3.81 0 01-1.057 1.255 4.856 4.856 0 01-1.566.782 6.54 6.54 0 01-1.912.26h-7.63v-15.46h8.238a3.26 3.26 0 011.509.348c.44.225.829.532 1.146.904.319.376.567.803.731 1.263.175.458.266.942.269 1.43a4.035 4.035 0 01-.597 2.123 3.6 3.6 0 01-1.7 1.472 4.08 4.08 0 012.173 1.43 3.99 3.99 0 01.791 2.515zm-10.04-9.376v4.563h4.637c.299.003.595-.057.869-.174.258-.116.494-.274.696-.47.206-.202.367-.443.473-.708.116-.292.172-.603.167-.916a2.355 2.355 0 00-.583-1.639 1.887 1.887 0 00-.668-.483 1.934 1.934 0 00-.817-.157l-4.774-.016zm7.45 8.913a2.572 2.572 0 00-.619-1.677 2.096 2.096 0 00-.685-.521 1.992 1.992 0 00-.877-.196h-5.269v4.73h5.11a2.332 2.332 0 002.34-2.331v-.005zm10.315 2.252a4.025 4.025 0 002.052-.475 3.844 3.844 0 001.318-1.243 5.13 5.13 0 00.707-1.752c.14-.665.21-1.342.208-2.02V19h2.487v7.785c.007 1.002-.119 2-.374 2.97a6.851 6.851 0 01-1.192 2.445 5.673 5.673 0 01-2.11 1.654 7.277 7.277 0 01-3.101.604 7.09 7.09 0 01-3.165-.638 5.655 5.655 0 01-2.086-1.708 6.922 6.922 0 01-1.147-2.452 11.623 11.623 0 01-.353-2.875V19h2.471v7.785c-.002.685.069 1.37.211 2.04.125.622.364 1.216.706 1.753.33.51.783.934 1.319 1.232a4.11 4.11 0 002.049.465zm22.691 2.187V23.325l-4.602 8.428h-1.353l-4.623-8.428v11.137h-2.442V19h2.606l5.126 9.45L143.87 19h2.606v15.462h-2.442z" fill="#1FBBEA"/><path d="M43.399 0a18.918 18.918 0 00-12.22 4.479A18.919 18.919 0 0018.96 0C8.505 0 0 8.525 0 19.001S8.505 38 18.96 38a18.845 18.845 0 0012.213-4.485A18.917 18.917 0 0043.399 38c10.454 0 18.96-8.525 18.96-19.002C62.359 8.521 53.853 0 43.399 0zM.72 19.001C.72 8.924 8.9.726 18.955.726c4.264 0 8.392 1.498 11.667 4.234a19.234 19.234 0 00-1.688 1.754 15.776 15.776 0 00-9.979-3.56c-8.717 0-15.808 7.107-15.808 15.843s7.091 15.845 15.808 15.845a15.775 15.775 0 008.032-2.192 15.82 15.82 0 005.806-5.978c.532-.966.81-2.052.808-3.156v-4.515a9.83 9.83 0 012.175-6.16 9.775 9.775 0 0112.017-2.603 9.806 9.806 0 014.52 4.71 9.836 9.836 0 01.568 6.508 9.817 9.817 0 01-3.633 5.425 9.78 9.78 0 01-12.286-.47l-.403-.353a18.912 18.912 0 001.184-4.502 6.204 6.204 0 003.155 3.13 6.186 6.186 0 004.434.213 6.201 6.201 0 003.44-2.813 6.224 6.224 0 00-1.75-8.121 6.188 6.188 0 00-8.242.884 6.22 6.22 0 00-1.586 4.156c0 10.078-8.18 18.275-18.236 18.275C8.903 37.28.72 29.08.72 19.001zm25.159-7.268l-.345-.302a10.006 10.006 0 00-10.728-1.567 10.022 10.022 0 00-4.273 3.704 10.054 10.054 0 000 10.865 10.023 10.023 0 004.273 3.704 9.997 9.997 0 0010.985-1.799 6.461 6.461 0 002.011-4.716v-2.621A15.654 15.654 0 0132.37 7.95 15.589 15.589 0 0143.4 3.375c8.598 0 15.592 7.01 15.592 15.626s-6.993 15.63-15.592 15.63c-3.587 0-7.065-1.24-9.845-3.512a18.957 18.957 0 001.564-2.187 12.884 12.884 0 008.28 3.015c7.121 0 12.914-5.806 12.914-12.942S50.52 6.06 43.4 6.06a12.898 12.898 0 00-9.13 3.791 12.956 12.956 0 00-3.78 9.15v3.697a6.226 6.226 0 01-1.104 3.57 12.691 12.691 0 01-4.542 4.015 12.658 12.658 0 01-5.882 1.446c-7 0-12.695-5.707-12.695-12.723 0-7.017 5.69-12.728 12.693-12.728 2.987 0 5.877 1.056 8.162 2.983a19.2 19.2 0 00-1.237 2.472h-.005zm1.353-2.66a12.88 12.88 0 00-8.277-3.013c-7.12 0-12.913 5.805-12.913 12.941 0 7.136 5.792 12.942 12.912 12.942 2.084 0 4.136-.504 5.983-1.472a12.914 12.914 0 004.62-4.083 6.44 6.44 0 001.146-3.69v-3.697c0-3.375 1.338-6.61 3.719-8.997a12.682 12.682 0 018.977-3.726c7.001 0 12.695 5.707 12.695 12.723 0 2.423-.689 4.796-1.988 6.839a12.701 12.701 0 01-5.346 4.695 12.667 12.667 0 01-13.528-1.796c.474-.792.889-1.617 1.242-2.47l.346.302a10.004 10.004 0 0012.566.478 10.04 10.04 0 003.714-5.55c.57-2.22.363-4.57-.585-6.656a10.029 10.029 0 00-4.624-4.814 9.997 9.997 0 00-12.29 2.67 10.053 10.053 0 00-2.219 6.302v4.515a6.312 6.312 0 01-.781 3.051 15.603 15.603 0 01-5.723 5.898 15.56 15.56 0 01-7.919 2.167c-8.597 0-15.591-7.01-15.591-15.627S10.362 3.379 18.959 3.379a15.557 15.557 0 019.84 3.503 18.886 18.886 0 00-1.562 2.19h-.005zM37.92 19a5.5 5.5 0 01.923-3.052 5.469 5.469 0 018.432-.832 5.496 5.496 0 011.187 5.986 5.488 5.488 0 01-2.018 2.465 5.471 5.471 0 01-3.045.925 5.481 5.481 0 01-3.873-1.61A5.505 5.505 0 0137.92 19zm5.479 18.275a18.19 18.19 0 01-11.673-4.24 19.026 19.026 0 001.686-1.756 15.77 15.77 0 009.987 3.565c8.718 0 15.81-7.107 15.81-15.844 0-8.737-7.092-15.839-15.81-15.839A15.79 15.79 0 0032.222 7.8 15.86 15.86 0 0027.59 19v2.619a6.26 6.26 0 01-2.194 4.786 9.785 9.785 0 01-10.49 1.528 9.801 9.801 0 01-4.176-3.622 9.832 9.832 0 010-10.622 9.802 9.802 0 014.177-3.622 9.776 9.776 0 0110.489 1.528l.4.35a19.075 19.075 0 00-1.184 4.497 6.205 6.205 0 00-3.157-3.126 6.186 6.186 0 00-4.434-.21 6.202 6.202 0 00-3.437 2.816 6.224 6.224 0 001.754 8.12 6.189 6.189 0 008.241-.888A6.22 6.22 0 0025.164 19a18.31 18.31 0 015.34-12.923A18.199 18.199 0 0143.398.725C53.455.725 61.636 8.923 61.636 19c0 10.077-8.18 18.276-18.236 18.276zM24.439 19a5.5 5.5 0 01-.924 3.051 5.47 5.47 0 01-8.432.832 5.496 5.496 0 01-1.188-5.985 5.49 5.49 0 012.019-2.465 5.471 5.471 0 013.044-.925 5.48 5.48 0 013.874 1.61A5.504 5.504 0 0124.439 19z" fill="url(#paint0_linear)"/><defs><linearGradient id="paint0_linear" x1="18.646" y1="-2.753" x2="43.794" y2="40.708" gradientUnits="userSpaceOnUse"><stop stop-color="#09528B"/><stop offset=".08" stop-color="#0B5B92"/><stop offset=".21" stop-color="#1172A3"/><stop offset=".37" stop-color="#1A98C0"/><stop offset=".53" stop-color="#25C4E2"/><stop offset="1" stop-color="#09528B"/></linearGradient></defs></svg>